# xmcd
#
# Track frame offsets:
#	150
#	20865
#	34638
#	47839
#	61809
#	73195
#	86863
#	104601
#	122919
#	139454
#	154587
#	173333
#	188353
#	202226
#
# Disc length: 2952
#
# Revision: 2
# Processed by: cddbd v1.5.1PL0 Copyright (c) Steve Scherf et al.
# Submitted via: EasyCDDAExtractor 6.0.0.1
# Normalized: r1:DSETVAR1
#
DISCID=ca0b860e
DTITLE=Various Artist - The best of country music
DYEAR=1994
DGENRE=Country
TTITLE0=Shawn Camp - Fallin'never felt so good
TTITLE1=Emmylou Harris - Two more bottles of wine
TTITLE2=Dwight Yoakam - Pocket of a clown
TTITLE3=Victoria Shaw - Tears dry
TTITLE4=Dan Seals - All fired up
TTITLE5=David Ball - Thinkin' problem
TTITLE6=Faith Hill - Piece of my heart
TTITLE7=Little Texas - My love
TTITLE8=Carlene Carter - I fell in love
TTITLE9=Randy Travis - Before you kill us all
TTITLE10=Mark O'Conner - The devil comes back to Georgia
TTITLE11=Forester Sister - Men
TTITLE12=Hank Williams Jr. - Come on over to the country
TTITLE13=Travis Tritt - Foolish pride
EXTD=
EXTT0=
EXTT1=
EXTT2=
EXTT3=
EXTT4=
EXTT5=
EXTT6=
EXTT7=
EXTT8=
EXTT9=
EXTT10=
EXTT11=
EXTT12=
EXTT13=
PLAYORDER=
